<svg xmlns="http://www.w3.org/2000/svg" viewBox="0 0 192 192" fill="none">
  <defs>
    <linearGradient id="bg" x1="0%" y1="0%" x2="100%" y2="100%">
      <stop offset="0%" stop-color="#6366f1"/>
      <stop offset="100%" stop-color="#7c3aed"/>
    </linearGradient>
    <linearGradient id="shine" x1="0%" y1="0%" x2="100%" y2="100%">
      <stop offset="0%" stop-color="white" stop-opacity="0.12"/>
      <stop offset="50%" stop-color="white" stop-opacity="0"/>
    </linearGradient>
  </defs>

  <!-- Background -->
  <rect width="192" height="192" rx="48" fill="url(#bg)"/>
  <rect width="192" height="192" rx="48" fill="url(#shine)"/>

  <!-- Chat bubble -->
  <rect x="42" y="42" width="108" height="78" rx="24" fill="white"/>
  <polygon points="60,120 84,120 54,150" fill="white"/>

  <!-- Data lines -->
  <rect x="60" y="66" width="72" height="9" rx="4.5" fill="#6366f1"/>
  <rect x="60" y="87" width="48" height="9" rx="4.5" fill="#6366f1" opacity="0.5"/>

  <!-- Sparkle -->
  <g transform="translate(156, 36)">
    <path d="M0-18 L4.8-4.8 L18 0 L4.8 4.8 L0 18 L-4.8 4.8 L-18 0 L-4.8-4.8Z" fill="white" opacity="0.9"/>
  </g>
  <g transform="translate(162, 60)">
    <path d="M0-9 L2.4-2.4 L9 0 L2.4 2.4 L0 9 L-2.4 2.4 L-9 0 L-2.4-2.4Z" fill="white" opacity="0.6"/>
  </g>
</svg>
